<svg role="img" viewBox="0 0 60 60" xmlns="http://www.w3.org/2000/svg" id="Fusionauth--Streamline-Simple-Icons" height="60" width="60">
  <desc>
    Fusionauth Streamline Icon: https://streamlinehq.com
  </desc>
  <title>FusionAuth</title>
  <path d="M30 0a4.1675 4.1675 0 0 0 -4.165 4.165A4.1675 4.1675 0 0 0 30 8.335a4.1675 4.1675 0 0 0 4.165 -4.17A4.1675 4.1675 0 0 0 30 0ZM23.765 2.8625A28.93 28.93 0 0 0 1.105 30.7925a1.79 1.79 0 0 0 2.6875 1.545 1.755 1.755 0 0 0 0.895 -1.5 25.339999999999996 25.339999999999996 0 0 1 12.649999999999999 -21.665c2.1075 -1.2149999999999999 4.375 -2.12 6.74 -2.685a6.375 6.375 0 0 1 -0.3125 -3.63Zm20.0375 3.15a1.7799999999999998 1.7799999999999998 0 0 0 -1.7374999999999998 1.7825 1.7599999999999998 1.7599999999999998 0 0 0 0.8500000000000001 1.525 25.332499999999996 25.332499999999996 0 0 1 11.3625 28.9675c0.785 0.11499999999999999 1.545 0.375 2.235 0.7725 0.37 0.21000000000000002 0.725 0.4575 1.05 0.7324999999999999a28.9325 28.9325 0 0 0 -12.875 -33.575 1.7874999999999999 1.7874999999999999 0 0 0 -0.885 -0.20500000000000002Zm-13.7975 9.4775a15.6175 15.6175 0 1 0 0.005 31.235 15.6175 15.6175 0 0 0 -0.005 -31.235Zm0 3.5749999999999997a12.0475 12.0475 0 0 1 8.525 20.555 12.0425 12.0425 0 1 1 -8.525 -20.555Zm-0.025 5.7375c-3.53 0.035 -4.74 4.7175 -1.6700000000000002 6.46l-1.0875 5.5175a0.5925 0.5925 0 0 0 0.5850000000000001 0.7025000000000001h4.43a0.59 0.59 0 0 0 0.5850000000000001 -0.7025000000000001l-1.095 -5.5175c1.075 -0.6174999999999999 1.7349999999999999 -1.765 1.73 -3.005a3.4499999999999997 3.4499999999999997 0 0 0 -3.4749999999999996 -3.4549999999999996zm-23.31 15.605a4.1675 4.1675 0 0 0 -4.165 4.165 4.1675 4.1675 0 0 0 4.165 4.17 4.1675 4.1675 0 0 0 4.165 -4.17 4.1675 4.1675 0 0 0 -4.165 -4.165zm46.660000000000004 0a4.1675 4.1675 0 0 0 -4.165 4.165 4.1675 4.1675 0 0 0 4.165 4.17 4.1675 4.1675 0 0 0 4.165 -4.17 4.1675 4.1675 0 0 0 -4.165 -4.165zM11.637500000000001 48.567499999999995c-0.48750000000000004 0.61 -1.08 1.125 -1.755 1.52a6.46 6.46 0 0 1 -1.1700000000000002 0.5175 28.94 28.94 0 0 0 35.52 5.6825 1.7825 1.7825 0 0 0 0 -3.0949999999999998 1.7599999999999998 1.7599999999999998 0 0 0 -1.7574999999999998 -0.03 25.335 25.335 0 0 1 -25.13 -0.125 25.425 25.425 0 0 1 -5.7075 -4.47z" fill="#d6d6d6" stroke-width="2.5"></path>
</svg>