<svg role="img" viewBox="0 0 60 60" xmlns="http://www.w3.org/2000/svg" id="Amazonwebservices--Streamline-Simple-Icons" height="60" width="60">
  <desc>
    Amazonwebservices Streamline Icon: https://streamlinehq.com
  </desc>
  <title>Amazon Web Services</title>
  <path d="M16.9075 25.09c0 0.74 0.08 1.3375000000000001 0.21999999999999997 1.775 0.16 0.43999999999999995 0.36 0.9199999999999999 0.64 1.44 0.1 0.1575 0.14 0.3175 0.14 0.4575 0 0.2 -0.12 0.4 -0.38 0.6l-1.2575 0.8375a0.9575 0.9575 0 0 1 -0.52 0.18c-0.2 0 -0.4 -0.1 -0.5974999999999999 -0.28a6.175000000000001 6.175000000000001 0 0 1 -0.7174999999999999 -0.9375 15.45 15.45 0 0 1 -0.62 -1.1775c-1.555 1.835 -3.5125 2.7525 -5.8675 2.7525 -1.675 0 -3.0125 -0.47750000000000004 -3.99 -1.4349999999999998 -0.9775 -0.96 -1.4749999999999999 -2.235 -1.4749999999999999 -3.8324999999999996 0 -1.695 0.5974999999999999 -3.075 1.815 -4.109999999999999 1.2175 -1.0374999999999999 2.8325 -1.5575 4.8875 -1.5575 0.68 0 1.3775000000000002 0.06 2.1149999999999998 0.16 0.74 0.1 1.5 0.26 2.295 0.43999999999999995v-1.4575c0 -1.5175 -0.3175 -2.575 -0.9375 -3.1925 -0.6375 -0.62 -1.715 -0.9175 -3.25 -0.9175 -0.7000000000000001 0 -1.42 0.0775 -2.1574999999999998 0.2575 -0.7374999999999999 0.18 -1.4575 0.4 -2.155 0.68a5.717499999999999 5.717499999999999 0 0 1 -0.7000000000000001 0.26 1.22 1.22 0 0 1 -0.3175 0.057499999999999996c-0.28 0 -0.42000000000000004 -0.2 -0.42000000000000004 -0.6174999999999999v-0.9775c0 -0.32 0.04 -0.56 0.14 -0.7000000000000001a1.4925 1.4925 0 0 1 0.56 -0.41750000000000004c0.6975 -0.36 1.535 -0.66 2.5124999999999997 -0.8999999999999999a12.1 12.1 0 0 1 3.115 -0.3775c2.375 0 4.109999999999999 0.54 5.227500000000001 1.6175000000000002 1.0975 1.075 1.655 2.7125 1.655 4.907500000000001v6.465zm-8.100000000000001 3.035c0.6575 0 1.335 -0.12 2.0549999999999997 -0.36 0.7174999999999999 -0.24 1.3575000000000002 -0.6775 1.895 -1.275 0.32 -0.38 0.56 -0.8 0.68 -1.28 0.1175 -0.47750000000000004 0.2 -1.0574999999999999 0.2 -1.7349999999999999v-0.8375a16.65 16.65 0 0 0 -1.8375 -0.34 15.049999999999999 15.049999999999999 0 0 0 -1.875 -0.12c-1.3375000000000001 0 -2.315 0.26 -2.9749999999999996 0.8 -0.6575 0.5375 -0.9750000000000001 1.295 -0.9750000000000001 2.2925 0 0.9375 0.2375 1.6375000000000002 0.7374999999999999 2.1149999999999998 0.47750000000000004 0.5 1.1749999999999998 0.74 2.0949999999999998 0.74zm16.025 2.155c-0.36 0 -0.6 -0.06 -0.76 -0.2 -0.16 -0.12 -0.3 -0.4 -0.42000000000000004 -0.7775L18.965 13.875a3.4949999999999997 3.4949999999999997 0 0 1 -0.18 -0.8c0 -0.32 0.16 -0.5 0.47750000000000004 -0.5h1.9575c0.3775 0 0.6375 0.0625 0.775 0.2 0.1625 0.12 0.28250000000000003 0.4 0.4 0.78l3.3550000000000004 13.209999999999999 3.1125000000000003 -13.209999999999999c0.1 -0.4 0.21999999999999997 -0.66 0.3775 -0.78a1.3725 1.3725 0 0 1 0.8 -0.2h1.595c0.38 0 0.64 0.0625 0.8 0.2 0.1575 0.12 0.3 0.4 0.3775 0.78l3.1525 13.37 3.4525 -13.37c0.12 -0.4 0.26 -0.66 0.4 -0.78a1.3 1.3 0 0 1 0.7775 -0.2h1.8575c0.3175 0 0.5 0.1625 0.5 0.5 0 0.1 -0.0225 0.2 -0.0425 0.32a2.8425000000000002 2.8425000000000002 0 0 1 -0.14 0.5l-4.8075 15.425c-0.12 0.4 -0.26 0.6575 -0.42000000000000004 0.7775a1.275 1.275 0 0 1 -0.7575 0.2h-1.7175000000000002c-0.3775 0 -0.6375 -0.06 -0.8 -0.2 -0.1575 -0.14 -0.2975 -0.4 -0.375 -0.8l-3.0949999999999998 -12.87 -3.075 12.85c-0.1 0.4 -0.21749999999999997 0.66 -0.375 0.8 -0.1625 0.14 -0.4425 0.2 -0.8 0.2zm25.64 0.5375c-1.0374999999999999 0 -2.0749999999999997 -0.12 -3.0725000000000002 -0.3575 -0.9975 -0.24 -1.775 -0.5 -2.295 -0.8 -0.32 -0.1775 -0.5375 -0.3775 -0.6174999999999999 -0.5575a1.4074999999999998 1.4074999999999998 0 0 1 -0.12 -0.56v-1.0174999999999998c0 -0.41750000000000004 0.16 -0.6174999999999999 0.4575 -0.6174999999999999 0.12 0 0.24 0.02 0.36 0.06 0.12 0.04 0.3 0.12 0.5 0.2 0.6775 0.3 1.4149999999999998 0.5375 2.195 0.6975 0.7975 0.16 1.575 0.24 2.375 0.24 1.255 0 2.235 -0.21999999999999997 2.9125 -0.66a2.15 2.15 0 0 0 1.0374999999999999 -1.895 1.9425000000000001 1.9425000000000001 0 0 0 -0.5375 -1.3975000000000002c-0.36 -0.3775 -1.04 -0.7174999999999999 -2.0175 -1.0374999999999999l-2.8925 -0.8999999999999999c-1.4575 -0.4575 -2.535 -1.135 -3.1925 -2.0324999999999998a4.755 4.755 0 0 1 -1 -2.8949999999999996c0 -0.8375 0.1825 -1.575 0.54 -2.215 0.36 -0.6375 0.8375 -1.1975 1.4375 -1.635 0.6 -0.45999999999999996 1.275 -0.8 2.0749999999999997 -1.0374999999999999 0.8 -0.24 1.6375000000000002 -0.34 2.515 -0.34 0.4375 0 0.8975 0.02 1.3375000000000001 0.08 0.4575 0.06 0.875 0.14 1.295 0.21999999999999997 0.4 0.1 0.78 0.2 1.1375 0.3175 0.36 0.12 0.64 0.24 0.8400000000000001 0.36a1.7249999999999999 1.7249999999999999 0 0 1 0.6 0.5 1.075 1.075 0 0 1 0.1775 0.6575v0.9375c0 0.42000000000000004 -0.16 0.64 -0.45999999999999996 0.64a2.0749999999999997 2.0749999999999997 0 0 1 -0.7575 -0.24 9.13 9.13 0 0 0 -3.83 -0.7775c-1.1375 0 -2.0374999999999996 0.1775 -2.6550000000000002 0.5575 -0.62 0.38 -0.9375 0.9575 -0.9375 1.775 0 0.56 0.2 1.04 0.6 1.4175 0.3975 0.38 1.135 0.76 2.1925 1.1l2.835 0.895c1.4349999999999998 0.45999999999999996 2.475 1.1 3.0925000000000002 1.9175 0.6174999999999999 0.8175 0.9175 1.755 0.9175 2.7925 0 0.8575 -0.18 1.6375000000000002 -0.5175 2.315 -0.36 0.68 -0.8400000000000001 1.2775 -1.4575 1.7574999999999998 -0.62 0.5 -1.3575000000000002 0.8575 -2.215 1.1175 -0.8999999999999999 0.2775 -1.835 0.41750000000000004 -2.8549999999999995 0.41750000000000004zm3.7725 9.7c-6.5649999999999995 4.85 -16.105 7.422499999999999 -24.305 7.422499999999999 -11.495 0 -21.85 -4.25 -29.674999999999997 -11.315 -0.6174999999999999 -0.5575 -0.06 -1.3175000000000001 0.68 -0.8775 8.459999999999999 4.907500000000001 18.8975 7.8825 29.692500000000003 7.8825 7.285 0 15.285 -1.5175 22.650000000000002 -4.63 1.0975 -0.5 2.0349999999999997 0.7174999999999999 0.9575 1.5175zm2.7350000000000003 -3.115c-0.8400000000000001 -1.075 -5.550000000000001 -0.5175 -7.685 -0.2575 -0.6375 0.08 -0.7374999999999999 -0.48 -0.1575 -0.8999999999999999 3.75 -2.6325 9.9175 -1.875 10.634999999999998 -0.9975 0.7174999999999999 0.8999999999999999 -0.2 7.065 -3.7125000000000004 10.017499999999998 -0.5375 0.45999999999999996 -1.0574999999999999 0.21999999999999997 -0.8175 -0.3775 0.8 -1.975 2.575 -6.425 1.7374999999999998 -7.485z" fill="#d6d6d6" stroke-width="2.5"></path>
</svg>