<svg role="img" viewBox="0 0 60 60" xmlns="http://www.w3.org/2000/svg" id="Express--Streamline-Simple-Icons" height="60" width="60">
  <desc>
    Express Streamline Icon: https://streamlinehq.com
  </desc>
  <title>Express</title>
  <path d="M60 46.47a3.8225 3.8225 0 0 1 -4.7375 -1.7999999999999998l-8.625 -11.9275 -1.25 -1.6675 -10.0075 13.61a3.665 3.665 0 0 1 -4.505 1.77l12.895000000000001 -17.3 -11.995000000000001 -15.627500000000001a3.9875 3.9875 0 0 1 4.75 1.665l8.94 12.075 8.99 -12.024999999999999a3.5875000000000004 3.5875000000000004 0 0 1 4.47 -1.6700000000000002L54.269999999999996 19.75l-6.305 8.2075a1.665 1.665 0 0 0 0 2.485l12.010000000000002 16.03zM0.005 28.94l1.05 -5.1875c2.885 -10.2575 14.645 -14.524999999999999 22.735 -8.175 4.7375 3.7225 5.92 8.9925 5.6875 14.9325H2.79C2.3575 41.1175 10.0125 47.5225 19.8 44.25a10.195 10.195 0 0 0 6.455 -7.1899999999999995c0.5175 -1.665 1.37 -1.9500000000000002 2.9349999999999996 -1.47a13.5425 13.5425 0 0 1 -6.4725 9.8925 15.68 15.68 0 0 1 -18.265 -2.3325 16.4375 16.4375 0 0 1 -4.1 -9.645c0 -0.5874999999999999 -0.2 -1.1375 -0.335 -1.665A220.825 220.825 0 0 1 0 28.9425zm2.8175 -0.715h24.134999999999998c-0.15 -7.69 -5.0024999999999995 -13.145 -11.475 -13.194999999999999 -7.205 -0.1 -12.36 5.234999999999999 -12.677499999999998 13.16z" fill="#d6d6d6" stroke-width="2.5"></path>
</svg>