<svg role="img" viewBox="0 0 60 60" xmlns="http://www.w3.org/2000/svg" id="Laravel--Streamline-Simple-Icons" height="60" width="60">
  <desc>
    Laravel Streamline Icon: https://streamlinehq.com
  </desc>
  <title>Laravel</title>
  <path d="M59.105 13.575a0.9099999999999999 0.9099999999999999 0 0 1 0.035 0.25v12.8725c0 0.3375 -0.1825 0.65 -0.47250000000000003 0.8150000000000001l-10.807500000000001 6.2250000000000005v12.335a0.9450000000000001 0.9450000000000001 0 0 1 -0.47 0.8150000000000001L24.825 59.8725a0.79 0.79 0 0 1 -0.165 0.0675c-0.02 0.005 -0.04 0.02 -0.06 0.025a0.8699999999999999 0.8699999999999999 0 0 1 -0.48 0c-0.027499999999999997 -0.005 -0.05 -0.02 -0.075 -0.03 -0.05 -0.02 -0.10500000000000001 -0.035 -0.155 -0.0625L1.3325 46.887499999999996a0.94 0.94 0 0 1 -0.47250000000000003 -0.8150000000000001V7.4350000000000005c0 -0.0825 0.0125 -0.165 0.035 -0.245 0.0075 -0.03 0.025 -0.05 0.035 -0.08a0.9225 0.9225 0 0 1 0.057499999999999996 -0.14500000000000002c0.01 -0.0325 0.0375 -0.05499999999999999 0.057499999999999996 -0.0825l0.0825 -0.11249999999999999c0.03 -0.025 0.0625 -0.045 0.0925 -0.0675 0.035 -0.03 0.0675 -0.06 0.10250000000000001 -0.085H1.3250000000000002L12.6075 0.125a0.9375 0.9375 0 0 1 0.9375 0L24.825 6.6175h0.005c0.0375 0.025 0.0675 0.052500000000000005 0.1 0.0825l0.095 0.0675c0.0325 0.035 0.05 0.075 0.0825 0.11249999999999999 0.02 0.027499999999999997 0.05 0.052500000000000005 0.0625 0.0825 0.025 0.05 0.0425 0.095 0.06 0.14500000000000002 0.0075 0.027499999999999997 0.025 0.052500000000000005 0.0325 0.08 0.025 0.0775 0.035 0.16 0.035 0.245v24.13l9.399999999999999 -5.41V13.8175c0 -0.0825 0.01 -0.165 0.0325 -0.245 0.0075 -0.025 0.025 -0.05 0.0325 -0.08a1.2175 1.2175 0 0 1 0.06 -0.1475c0.0175 -0.03 0.045 -0.05 0.0625 -0.0825 0.03 -0.0375 0.052500000000000005 -0.075 0.0825 -0.10749999999999998 0.03 -0.03 0.0625 -0.05 0.0925 -0.07 0.035 -0.025 0.065 -0.057499999999999996 0.10250000000000001 -0.08h0.0025l11.282499999999999 -6.494999999999999a0.9375 0.9375 0 0 1 0.9375 0l11.282499999999999 6.494999999999999c0.04 0.025 0.0675 0.052500000000000005 0.10500000000000001 0.0775 0.03 0.025 0.0625 0.045 0.09 0.07 0.0325 0.035 0.05499999999999999 0.075 0.085 0.10999999999999999 0.02 0.03 0.0475 0.052500000000000005 0.06 0.0825 0.027499999999999997 0.05 0.045 0.1 0.06 0.15 0.015 0.025 0.03 0.052500000000000005 0.0375 0.08zm-1.85 12.58V15.447500000000002l-3.9450000000000003 2.27 -5.455 3.14v10.707500000000001zm-11.274999999999999 19.375v-10.7175l-5.3675 3.0625 -15.315000000000001 8.745000000000001v10.8125zM2.7325 9.06v36.47l20.682499999999997 11.9025v-10.8125l-10.805 -6.1125 -0.005 -0.0075H12.6c-0.035 -0.025 -0.0625 -0.052500000000000005 -0.1 -0.0775 -0.027499999999999997 -0.025 -0.06 -0.045 -0.08750000000000001 -0.0675l-0.0025 -0.005c-0.0325 -0.03 -0.052500000000000005 -0.0625 -0.0775 -0.1 -0.025 -0.027499999999999997 -0.052500000000000005 -0.05499999999999999 -0.07 -0.09h-0.005c-0.02 -0.035 -0.0325 -0.0775 -0.05 -0.1175 -0.015 -0.04 -0.035 -0.0675 -0.045 -0.10749999999999998a1.225 1.225 0 0 1 -0.02 -0.14250000000000002c-0.005 -0.035 -0.015 -0.0675 -0.015 -0.10250000000000001V14.4725l-5.45 -3.1424999999999996zM13.075000000000001 2.0250000000000004 3.675 7.4350000000000005l9.399999999999999 5.41 9.395 -5.41zm4.89 33.7625 5.455 -3.14V9.06l-3.95 2.275 -5.455 3.1374999999999997v23.587500000000002zm28.9525 -27.375 -9.399999999999999 5.4075 9.399999999999999 5.4075 9.397499999999999 -5.41zm-0.94 12.445L40.525000000000006 17.7175l-3.95 -2.2675v10.707500000000001l5.455 3.14 3.95 2.27zm-21.625 24.134999999999998 13.785 -7.87 6.89 -3.93 -9.3925 -5.4075 -10.807500000000001 6.2225 -9.8525 5.675z" fill="#d6d6d6" stroke-width="2.5"></path>
</svg>