<svg role="img" viewBox="0 0 60 60" xmlns="http://www.w3.org/2000/svg" id="Mysql--Streamline-Simple-Icons" height="60" width="60">
  <desc>
    Mysql Streamline Icon: https://streamlinehq.com
  </desc>
  <title>MySQL</title>
  <path d="M41.0125 13.752500000000001c-0.28750000000000003 0 -0.48250000000000004 0.035 -0.685 0.0825v0.0325h0.035c0.135 0.26 0.365 0.44999999999999996 0.535 0.6825000000000001 0.135 0.2675 0.25 0.535 0.385 0.8l0.035 -0.0375c0.235 -0.165 0.35000000000000003 -0.42999999999999994 0.35000000000000003 -0.8325 -0.1 -0.1175 -0.11499999999999999 -0.235 -0.2 -0.35000000000000003 -0.1 -0.1675 -0.315 -0.25 -0.44999999999999996 -0.3825zM14.424999999999999 46.7375h-2.3175a127.13499999999999 127.13499999999999 0 0 0 -0.675 -11.025h-0.02l-3.525 11.025H6.125l-3.5 -11.025h-0.025a182.23 182.23 0 0 0 -0.48750000000000004 11.025H0c0.1375 -4.915 0.48 -9.525 1.025 -13.825000000000001h2.875l3.3375 10.16h0.02l3.3674999999999997 -10.16h2.7375c0.605 5.0375000000000005 0.96 9.65 1.07 13.825000000000001zm10.0425 -10.2c-0.9450000000000001 5.1125 -2.19 8.8325 -3.73 11.15 -1.205 1.79 -2.525 2.6825 -3.9575 2.6825 -0.3825 0 -0.8500000000000001 -0.11499999999999999 -1.4149999999999998 -0.34500000000000003v-1.2349999999999999c0.275 0.0425 0.6 0.065 0.9650000000000001 0.065 0.67 0 1.2075 -0.1875 1.6175000000000002 -0.555 0.49250000000000005 -0.44999999999999996 0.7374999999999999 -0.9550000000000001 0.7374999999999999 -1.5125 0 -0.3875 -0.1925 -1.1749999999999998 -0.5750000000000001 -2.36L15.575000000000001 36.5375h2.275l1.8175 5.8999999999999995c0.41000000000000003 1.34 0.5825 2.275 0.5125 2.8075 1 -2.66 1.695 -5.5675 2.0875 -8.7075zm30.8125 10.2h-6.574999999999999v-13.825000000000001h2.2125v12.125h4.362500000000001zm-8.299999999999999 0.3375 -2.54 -1.25c0.22499999999999998 -0.19 0.4425 -0.395 0.6375 -0.625 1.0825 -1.2650000000000001 1.62 -3.145 1.62 -5.6325 0 -4.575 -1.795 -6.865 -5.387499999999999 -6.865 -1.7599999999999998 0 -3.135 0.5800000000000001 -4.125 1.7425 -1.075 1.27 -1.615 3.14 -1.615 5.612500000000001 0 2.4299999999999997 0.475 4.215 1.4349999999999998 5.3500000000000005 0.875 1.025 2.1925 1.5375 3.9575 1.5375 0.66 0 1.2650000000000001 -0.0825 1.8125 -0.245l3.3125 1.9300000000000002 0.8999999999999999 -1.555zM38.75 43.97c-0.5625 -0.8999999999999999 -0.8425 -2.3499999999999996 -0.8425 -4.34 0 -3.4825 1.06 -5.225 3.175 -5.225 1.1075 0 1.925 0.41750000000000004 2.4425 1.25 0.56 0.905 0.8400000000000001 2.3400000000000003 0.8400000000000001 4.3075 0 3.51 -1.06 5.2700000000000005 -3.175 5.2700000000000005 -1.1125 0 -1.925 -0.41750000000000004 -2.445 -1.25zm-4.145 -1.0625c0 1.1749999999999998 -0.42999999999999994 2.14 -1.29 2.8899999999999997 -0.8599999999999999 0.75 -2.0075000000000003 1.125 -3.46 1.125 -1.3575000000000002 0 -2.66 -0.42999999999999994 -3.9325 -1.2875l0.5925 -1.19c1.095 0.55 2.0825 0.8200000000000001 2.9749999999999996 0.8200000000000001 0.8300000000000001 0 1.4825 -0.1825 1.9575 -0.55a1.885 1.885 0 0 0 0.75 -1.5375c0 -0.8250000000000001 -0.5750000000000001 -1.525 -1.62 -2.1125 -0.97 -0.5325 -2.9075 -1.6425 -2.9075 -1.6425 -1.055 -0.7675 -1.58 -1.59 -1.58 -2.9425 0 -1.125 0.3925 -2.0250000000000004 1.1749999999999998 -2.7125 0.7875 -0.6950000000000001 1.7999999999999998 -1.0374999999999999 3.05 -1.0374999999999999 1.28 0 2.45 0.34 3.5 1.025l-0.5325 1.19a6.8149999999999995 6.8149999999999995 0 0 0 -2.66 -0.5750000000000001c-0.7074999999999999 0 -1.255 0.17 -1.635 0.515a1.7125000000000001 1.7125000000000001 0 0 0 -0.62 1.31c0 0.8200000000000001 0.5850000000000001 1.525 1.665 2.125 0.9825 0.5375 2.9675000000000002 1.675 2.9675000000000002 1.675 1.0825 0.7625 1.62 1.575 1.62 2.92zm23.455 -14.63c-1.3375000000000001 -0.035 -2.375 0.1 -3.2424999999999997 0.47 -0.25 0.1 -0.65 0.1 -0.685 0.41750000000000004 0.1375 0.1325 0.1575 0.35000000000000003 0.275 0.535 0.2 0.335 0.545 0.7825 0.865 1.0174999999999998 0.35000000000000003 0.275 0.7000000000000001 0.54 1.0675 0.775 0.65 0.4 1.3875000000000002 0.6375 2.0250000000000004 1.04 0.3625 0.235 0.7324999999999999 0.5325 1.1 0.7825 0.1825 0.125 0.3 0.35000000000000003 0.535 0.42999999999999994v-0.05c-0.11499999999999999 -0.15 -0.15 -0.3675 -0.2625 -0.535 -0.1675 -0.1675 -0.335 -0.3175 -0.5 -0.48250000000000004a8.0575 8.0575 0 0 0 -1.7374999999999998 -1.6875c-0.535 -0.365 -1.705 -0.875 -1.925 -1.4874999999999998l-0.0325 -0.035c0.365 -0.0325 0.8 -0.165 1.1500000000000001 -0.265 0.5675 -0.15 1.0875 -0.1175 1.675 -0.265 0.265 -0.0675 0.5325 -0.15 0.8 -0.235v-0.15c-0.3 -0.3 -0.525 -0.7074999999999999 -0.8350000000000001 -0.9875a22.167500000000004 22.167500000000004 0 0 0 -2.7600000000000002 -2.0575c-0.525 -0.335 -1.19 -0.55 -1.7425 -0.8350000000000001 -0.2 -0.1 -0.535 -0.15 -0.65 -0.3175 -0.3 -0.365 -0.475 -0.8500000000000001 -0.6875 -1.2850000000000001a44.225 44.225 0 0 1 -1.3675000000000002 -2.9075c-0.3 -0.655 -0.48250000000000004 -1.3075 -0.8500000000000001 -1.9075 -1.7249999999999999 -2.8425000000000002 -3.5925000000000002 -4.565 -6.465 -6.25 -0.6174999999999999 -0.35000000000000003 -1.3575000000000002 -0.5 -2.14 -0.685 -0.41750000000000004 -0.02 -0.8350000000000001 -0.05 -1.25 -0.0675 -0.275 -0.1175 -0.54 -0.43499999999999994 -0.775 -0.5874999999999999 -0.95 -0.6 -3.41 -1.9 -4.109999999999999 -0.18 -0.44999999999999996 1.085 0.6675 2.155 1.055 2.705 0.28750000000000003 0.3825 0.65 0.8200000000000001 0.8500000000000001 1.25 0.1175 0.29000000000000004 0.15 0.5874999999999999 0.2675 0.8899999999999999 0.265 0.735 0.5175 1.555 0.8674999999999999 2.2425 0.1825 0.35000000000000003 0.3825 0.7174999999999999 0.6174999999999999 1.0325 0.135 0.1825 0.365 0.2675 0.41750000000000004 0.5675 -0.235 0.34 -0.25 0.8350000000000001 -0.385 1.25 -0.6 1.8925 -0.365 4.2325 0.485 5.625 0.2675 0.41500000000000004 0.905 1.335 1.7574999999999998 0.9825 0.75 -0.3 0.5850000000000001 -1.25 0.8 -2.0875 0.05 -0.2 0.0175 -0.3325 0.12 -0.4675v0.0375c0.235 0.47 0.47 0.9175 0.685 1.3875000000000002 0.515 0.8200000000000001 1.4149999999999998 1.6700000000000002 2.1675 2.2375 0.4 0.3 0.7174999999999999 0.8200000000000001 1.2175 1.0050000000000001v-0.05h-0.0375c-0.10749999999999998 -0.14500000000000002 -0.25 -0.21499999999999997 -0.385 -0.3325a8.612499999999999 8.612499999999999 0 0 1 -0.875 -1 21.9 21.9 0 0 1 -1.8675 -3.045c-0.275 -0.525 -0.505 -1.09 -0.725 -1.6075 -0.1 -0.2 -0.1 -0.5 -0.2675 -0.6 -0.25 0.365 -0.6174999999999999 0.6825000000000001 -0.8 1.1325 -0.3175 0.72 -0.35000000000000003 1.605 -0.47 2.525 -0.0675 0.0175 -0.035 0 -0.0675 0.035 -0.535 -0.13 -0.7174999999999999 -0.685 -0.9175 -1.1500000000000001 -0.5 -1.1875 -0.5825 -3.0949999999999998 -0.15 -4.4624999999999995 0.1175 -0.35000000000000003 0.6174999999999999 -1.4549999999999998 0.41750000000000004 -1.79 -0.10500000000000001 -0.3175 -0.43499999999999994 -0.5 -0.6174999999999999 -0.7575a6.195 6.195 0 0 1 -0.6 -1.0675c-0.4 -0.935 -0.6 -1.9700000000000002 -1.035 -2.905 -0.2 -0.4325 -0.55 -0.885 -0.8350000000000001 -1.2825 -0.3175 -0.44999999999999996 -0.6675 -0.7675 -0.9199999999999999 -1.3 -0.0825 -0.1825 -0.2 -0.485 -0.0675 -0.685 0.035 -0.135 0.10500000000000001 -0.1875 0.235 -0.22499999999999998 0.21999999999999997 -0.18 0.8375 0.05499999999999999 1.055 0.155 0.6174999999999999 0.25 1.1375 0.485 1.655 0.8350000000000001 0.235 0.165 0.48750000000000004 0.48250000000000004 0.7875 0.5650000000000001h0.35000000000000003c0.535 0.1175 1.1375 0.035 1.6375000000000002 0.1825 0.8875 0.28500000000000003 1.6875 0.7000000000000001 2.405 1.1500000000000001a14.8825 14.8825 0 0 1 5.2125 5.715c0.2 0.385 0.28750000000000003 0.7374999999999999 0.47 1.1375 0.35000000000000003 0.8250000000000001 0.7825 1.6575000000000002 1.1375 2.455 0.35000000000000003 0.7875 0.6875 1.59 1.19 2.2425 0.25 0.35000000000000003 1.255 0.5325 1.705 0.715 0.3325 0.15 0.8500000000000001 0.28750000000000003 1.1500000000000001 0.47 0.5750000000000001 0.35000000000000003 1.135 0.75 1.675 1.135 0.275 0.19 1.1075 0.6074999999999999 1.1575 0.9450000000000001z" fill="#d6d6d6" stroke-width="2.5"></path>
</svg>