<svg xmlns="http://www.w3.org/2000/svg" fill="none" viewBox="0 0 60 60" id="Nextjs--Streamline-Svg-Logos" height="60" width="60">
  <desc>
    Nextjs Streamline Icon: https://streamlinehq.com
  </desc>
  <path fill="#d6d6d6" d="M49.9134375 24.0826875v1.8888125h-4.0594375V35.908125h-2.0298749999999997V25.9715h-4.1439375v-1.8888125h10.23325Zm0.45625 10.698875000000001c0.14300000000000002 0 0.268125 0.051500000000000004 0.374 0.1545 0.10731249999999999 0.10300000000000001 0.16087500000000002 0.22631249999999997 0.162375 0.37 -0.0014999999999999998 0.0975625 -0.026250000000000002 0.187 -0.07575 0.2669375 -0.050875000000000004 0.0813125 -0.1154375 0.14500000000000002 -0.1966875 0.19106250000000002 -0.07974999999999999 0.047437499999999994 -0.16775 0.0718125 -0.2639375 0.0718125 -0.148625 0 -0.275125 -0.0514375 -0.381 -0.1544375 -0.1058125 -0.10300000000000001 -0.15818749999999998 -0.22768750000000001 -0.15681250000000002 -0.375375 -0.0013750000000000001 -0.1436875 0.051000000000000004 -0.267 0.15681250000000002 -0.37 0.105875 -0.10300000000000001 0.232375 -0.1545 0.381 -0.1545ZM10.139312499999999 35.908125 2.654725 26.6054375v9.29775H0.625V24.07775h2.5371500000000005L12.617875000000002 35.8195625l0.00018749999999999998 -9.8480625 -0.000875 -1.8888125h10.2331875v1.8888125H14.647749999999998v3.0384375h6.596562500000001v1.8888125H14.647749999999998v3.1206250000000004h8.202625v1.88875H10.139312499999999Zm19.216375 -5.0274375000000004 1.33025 1.6539375 -2.7258125 3.3874375H25.296249999999997l4.0594375 -5.041375Zm-1.3955625 -6.7930625 3.434375 4.265125 3.4236250000000004 -4.252000000000001 2.656375 -0.004125 -4.7500625 5.9078125 4.7576875 5.908625H34.818125L25.303874999999998 24.087625h2.65625Zm25.873875 6.766562499999999h0.8994375v3.46525c-0.0013124999999999999 0.3185 -0.07025 0.590875 -0.20487499999999997 0.819875 -0.136125 0.2290625 -0.324625 0.403875 -0.5666249999999999 0.5271875 -0.240625 0.1219375 -0.522625 0.1843125 -0.8430625 0.1843125 -0.293 0 -0.5555625 -0.052875 -0.7893749999999999 -0.155875 -0.23381249999999998 -0.10293750000000002 -0.4195 -0.2574375 -0.555625 -0.46075 -0.137625 -0.20325 -0.20500000000000002 -0.4566875 -0.20500000000000002 -0.76025h0.9009375c0.0013124999999999999 0.1328125 0.0315625 0.248 0.0893125 0.3441875 0.057687499999999996 0.09625 0.13743750000000002 0.16943750000000002 0.2393125 0.22093749999999998 0.10300000000000001 0.051500000000000004 0.2214375 0.07725 0.35475 0.07725 0.1444375 0 0.26825 -0.029875000000000002 0.3685625 -0.0908125 0.10037499999999999 -0.059625 0.1774375 -0.1490625 0.23112500000000002 -0.26837500000000003 0.052187500000000005 -0.117875 0.07981250000000001 -0.26425 0.081125 -0.4376875v-3.46525Zm4.60025 1.3551875c-0.0219375 -0.2100625 -0.11825000000000001 -0.374 -0.28600000000000003 -0.4905625 -0.16924999999999998 -0.1179375 -0.3878125 -0.1761875 -0.6560625 -0.1761875 -0.18837500000000001 0 -0.3505625 0.0285 -0.485375 0.08406250000000001 -0.1348125 0.056874999999999995 -0.2393125 0.13275 -0.310875 0.229 -0.0714375 0.09618750000000001 -0.10725 0.20600000000000002 -0.11006250000000001 0.3293125 0 0.10300000000000001 0.02475 0.1924375 0.0729375 0.267 0.048125 0.075875 0.1126875 0.1395625 0.196625 0.19106250000000002 0.0825 0.052875 0.17462499999999997 0.09618750000000001 0.275125 0.13143749999999998 0.10168750000000001 0.03525 0.20356249999999998 0.0650625 0.30525 0.0894375l0.4689375 0.1151875c0.1885 0.043375000000000004 0.37143750000000003 0.10168750000000001 0.5460625 0.1761875 0.17462499999999997 0.0731875 0.33281249999999996 0.1666875 0.471625 0.2791875 0.13899999999999998 0.11249999999999999 0.249 0.248 0.330125 0.4065625 0.081125 0.1585625 0.12243749999999999 0.3441875 0.12243749999999999 0.5583125 0 0.2886875 -0.07425 0.542125 -0.22425 0.761625 -0.149875 0.2181875 -0.36581250000000004 0.3889375 -0.649125 0.51225 -0.2819375 0.12200000000000001 -0.6229375 0.1843125 -1.0245 0.1843125 -0.387875 0 -0.7261875 -0.059625 -1.010875 -0.178875 -0.28600000000000003 -0.117875 -0.508875 -0.291375 -0.6698125 -0.5190625 -0.16087500000000002 -0.22762500000000002 -0.2475 -0.5054375 -0.259875 -0.8320624999999999h0.89125c0.012375 0.17075 0.067375 0.3130625 0.16087500000000002 0.42825 0.09487499999999999 0.11381250000000001 0.218625 0.197875 0.3699375 0.25475000000000003 0.1526875 0.0555625 0.323125 0.08406250000000001 0.511625 0.08406250000000001 0.1966875 0 0.3699375 -0.0298125 0.5198125 -0.088125 0.1485 -0.05825 0.2654375 -0.1395625 0.34937500000000005 -0.24525000000000002 0.08524999999999999 -0.10437500000000001 0.12793749999999998 -0.22768750000000001 0.12925 -0.368625 -0.0013124999999999999 -0.12875 -0.0399375 -0.2358125 -0.1141875 -0.319875 -0.075625 -0.08399999999999999 -0.180125 -0.1544375 -0.31362500000000004 -0.211375 -0.134625 -0.0569375 -0.2915 -0.10843749999999999 -0.47024999999999995 -0.153125l-0.5693125 -0.1436875c-0.41125 -0.1043125 -0.73725 -0.26287499999999997 -0.9751875 -0.475625 -0.2391875 -0.21281250000000002 -0.357625 -0.4946875 -0.357625 -0.848375 0 -0.29000000000000004 0.07981250000000001 -0.5447500000000001 0.240875 -0.7630000000000001 0.159375 -0.21812499999999999 0.378125 -0.3875625 0.6545624999999999 -0.5081875 0.2778125 -0.1219375 0.591375 -0.1815625 0.9406249999999999 -0.1815625 0.354875 0 0.6656249999999999 0.059625 0.933875 0.1815625 0.268125 0.12062500000000001 0.478625 0.2886875 0.6311875 0.5028125 0.1526875 0.214125 0.23243750000000002 0.459375 0.236625 0.7371875h-0.872Z" stroke-width="0.625"></path>
</svg>