<svg role="img" viewBox="0 0 60 60" xmlns="http://www.w3.org/2000/svg" id="Postgresql--Streamline-Simple-Icons" height="60" width="60">
  <desc>
    Postgresql Streamline Icon: https://streamlinehq.com
  </desc>
  <title>PostgreSQL</title>
  <path d="M58.8985 36.807a1.31725 1.31725 0 0 0 -0.14075000000000001 -0.29775c-0.34750000000000003 -0.6579999999999999 -1.192 -0.8545 -2.5185000000000004 -0.58025 -4.13325 0.85275 -5.73375 0.328 -6.314 -0.04775 3.3550000000000004 -5.1205 6.1125 -11.305 7.60275 -17.07425 0.6784999999999999 -2.62675 1.9955 -8.809249999999999 0.3055 -11.829a3.91025 3.91025 0 0 0 -0.37725000000000003 -0.5874999999999999C54.23275 2.2715 49.50175 0.062 43.77475 0.00125c-3.73675 -0.03950000000000001 -6.9262500000000005 0.8652500000000001 -7.7902499999999995 1.1985a23.6225 23.6225 0 0 0 -1.2897500000000002 -0.20400000000000001 20.11 20.11 0 0 0 -3.2784999999999997 -0.3195c-2.9555 -0.046 -5.509500000000001 0.6605 -7.624499999999999 2.1015 -2.14325 -0.80275 -11.972000000000001 -4.1125 -18.05475 0.19699999999999998C2.33975 5.3815 0.7715 9.68325 1.0755000000000001 15.760749999999998c0.10225 2.045 1.26725 8.335 3.10575 14.359 1.1495 3.76625 2.34675 6.7547500000000005 3.5835 8.955 1.3825 2.4855 2.8147499999999996 3.98325 4.28575 4.47375 1.1185 0.37275 2.83175 0.36025 4.64525 -1.81975 2.003 -2.40875 3.97575 -4.564500000000001 4.8615 -5.517250000000001 1.08775 0.58875 2.266 0.90625 3.4749999999999996 0.943a0.14225 0.14225 0 0 0 0.001 0.01025 27.578 27.578 0 0 0 -0.618 0.7635000000000001c-0.84725 1.0755000000000001 -1.0234999999999999 1.2992500000000002 -3.7504999999999997 1.86075 -0.7755 0.16 -2.8360000000000003 0.58475 -2.866 2.02875 -0.00625 0.306 0.08224999999999999 0.57725 0.22974999999999998 0.817 0.56725 1.05775 2.304 1.52425 2.5374999999999996 1.5827499999999999 3.33625 0.83375 6.261 0.22999999999999998 8.4285 -1.69675 -0.0425 5.5775 0.19375 11.0435 0.8634999999999999 12.718499999999999 0.553 1.38225 1.9045 4.76125 6.173 4.76075 0.62625 0 1.31575 -0.07275000000000001 2.074 -0.23525000000000001 4.45475 -0.9552499999999999 6.38925 -2.924 7.1375 -7.264749999999999 0.37575 -2.17675 1.004 -7.18825 1.347 -10.253 0.042249999999999996 -0.17575000000000002 0.08925000000000001 -0.30175 0.14250000000000002 -0.34049999999999997 0.00175 -0.00125 0.17425 -0.11775000000000001 1.068 0.07675a0.91825 0.91825 0 0 0 0.11075 0.016999999999999998l0.63475 0.05575 0.03725 0.0025c2.117 0.09599999999999999 4.7785 -0.35650000000000004 6.328 -1.077 1.6095000000000002 -0.747 4.5142500000000005 -2.58075 3.98775 -4.1745zM5.9275 29.69125c-1.8587500000000001 -6.0895 -2.94475 -12.212750000000002 -3.03075 -13.92975 -0.2715 -5.4285000000000005 1.04275 -9.20725 3.9057500000000003 -11.23175 4.59175 -3.2465 12.0995 -1.3519999999999999 15.27 -0.325 -0.008 0.008 -0.0165 0.015250000000000001 -0.0245 0.0235 -5.0595 5.11 -4.9395 13.84 -4.9270000000000005 14.373750000000001 -0.0005 0.20575 0.0165 0.49724999999999997 0.040499999999999994 0.89825 0.087 1.46825 0.249 4.201 -0.18375 7.296 -0.40225 2.8760000000000003 0.48425 5.691000000000001 2.432 7.723 0.2015 0.21025 0.41200000000000003 0.40775 0.6295000000000001 0.5935 -0.867 0.9285 -2.7510000000000003 2.9815000000000005 -4.7562500000000005 5.394 -1.41925 1.70625 -2.39925 1.3792499999999999 -2.7215 1.2717500000000002 -0.9797500000000001 -0.32675000000000004 -2.0324999999999998 -1.4677499999999999 -3.09525 -3.30575 -1.199 -2.0975 -2.40875 -5.07925 -3.53875 -8.7815zm15.018 12.71775c-0.42775 -0.107 -0.81775 -0.283 -1.0805 -0.443 0.22225 -0.09849999999999999 0.5935 -0.2255 1.20825 -0.35225 3.2082500000000005 -0.66025 3.7037500000000003 -1.1265 4.78575 -2.5004999999999997 0.248 -0.315 0.529 -0.67175 0.91825 -1.1065a0.88725 0.88725 0 0 0 0.18425 -0.3245c0.42700000000000005 -0.37825 0.6809999999999999 -0.27475 1.09225 -0.10425000000000001 0.39 0.1615 0.7695000000000001 0.65 0.92375 1.188 0.07275000000000001 0.254 0.15475 0.73625 -0.11299999999999999 1.111 -2.26075 3.1645000000000003 -5.554 3.1235 -7.9190000000000005 2.532zm5.234999999999999 -9.97 -0.13125 0.3525c-0.3325 0.8915 -0.6417499999999999 1.72025 -0.8334999999999999 2.5075 -1.6684999999999999 -0.0052499999999999995 -3.292 -0.718 -4.52625 -2.0060000000000002 -1.56975 -1.63775 -2.28275 -3.916 -1.9562499999999998 -6.2509999999999994 0.45699999999999996 -3.26975 0.28825 -6.117 0.1975 -7.6465000000000005 -0.0125 -0.21425 -0.02375 -0.40175000000000005 -0.030500000000000003 -0.5497500000000001 0.7392500000000001 -0.65525 4.16475 -2.4905 6.6072500000000005 -1.931 1.1147500000000001 0.2555 1.794 1.01425 2.07625 2.3200000000000003 1.4615 6.759500000000001 0.1935 9.57675 -0.8255 11.84075 -0.21000000000000002 0.46649999999999997 -0.40825 0.90725 -0.57775 1.3635zm18.40925 11.431249999999999c-0.042249999999999996 0.44200000000000006 -0.0895 0.94 -0.1545 1.48975l-0.365 1.09575a0.88675 0.88675 0 0 0 -0.0455 0.26925c-0.01475 1.18675 -0.135 1.6222500000000002 -0.28750000000000003 2.17325 -0.1585 0.573 -0.33825 1.22275 -0.4485 2.6437500000000003 -0.275 3.5357499999999997 -2.1955 5.566750000000001 -6.042999999999999 6.39125 -3.7887500000000003 0.81275 -4.46075 -1.242 -5.053 -3.05425a16.456 16.456 0 0 0 -0.19224999999999998 -0.5665c-0.5385 -1.4645 -0.47775 -3.52975 -0.3935 -6.38775 0.04125 -1.403 -0.06225 -4.7532499999999995 -0.8255 -6.6155 0.011000000000000001 -0.7330000000000001 0.0265 -1.47725 0.0475 -2.2295000000000003a0.88225 0.88225 0 0 0 -0.03825 -0.28150000000000003 3.73175 3.73175 0 0 0 -0.10975 -0.52c-0.3065 -1.07075 -1.05325 -1.9665 -1.94925 -2.33775 -0.356 -0.1475 -1.0095 -0.418 -1.7945 -0.21725 0.1675 -0.6900000000000001 0.45775000000000005 -1.46875 0.7725 -2.31225l0.13225 -0.355c0.14875 -0.4 0.335 -0.8142499999999999 0.5325 -1.253 1.06625 -2.3689999999999998 2.5265 -5.61325 0.9415 -12.943 -0.5935 -2.7452500000000004 -2.576 -4.08575 -5.581 -3.7745 -1.80175 0.1865 -3.44975 0.9135 -4.272 1.33025a14.178999999999998 14.178999999999998 0 0 0 -0.4895 0.26025c0.2295 -2.766 1.0965 -7.93525 4.33925 -11.205750000000002a10.0765 10.0765 0 0 1 0.7582500000000001 -0.6900000000000001 0.883 0.883 0 0 0 0.36175 -0.161c1.8809999999999998 -1.4264999999999999 4.23625 -2.1265 7.005 -2.08125 1.02275 0.01675 2.00425 0.08474999999999999 2.9354999999999998 0.2025 4.8475 0.886 8.10975 3.617 10.089749999999999 5.9567499999999995 2.03575 2.4057500000000003 3.1380000000000003 4.82875 3.5780000000000003 6.13575 -3.308 -0.3365 -5.5584999999999996 0.317 -6.69925 1.9475 -2.4815 3.54725 1.3575000000000002 10.43225 3.20275 13.741000000000001 0.33825 0.6065 0.6305 1.1305 0.72225 1.35325 0.60075 1.45625 1.37875 2.4282500000000002 1.9467499999999998 3.1380000000000003 0.174 0.21749999999999997 0.34299999999999997 0.4285 0.47125 0.6125 -1.002 0.28875 -2.802 0.95625 -2.638 4.2925 -0.03075 0.39075 -0.10575 1.11725 -0.20850000000000002 2.037 -0.11525 0.51925 -0.1755 1.15075 -0.2485 1.9155zm2.22625 -4.05275c-0.10125 -2.079 0.67275 -2.29625 1.4917500000000001 -2.52625a7.1415 7.1415 0 0 0 0.3375 -0.10149999999999999 3.005 3.005 0 0 0 0.3355 0.2575c1.42575 0.94125 3.95575 1.05325 7.517 0.33599999999999997 -0.504 0.44225000000000003 -1.29725 0.9984999999999999 -2.3832500000000003 1.5027499999999998 -1.0245 0.47575 -2.7392499999999997 0.8325 -4.36825 0.9089999999999999 -1.79925 0.08399999999999999 -2.7147500000000004 -0.20174999999999998 -2.93025 -0.3775zm1.42375 -23.178c-0.01475 0.877 -0.1355 1.673 -0.26349999999999996 2.50425 -0.1375 0.8939999999999999 -0.28 1.8185000000000002 -0.31600000000000006 2.9404999999999997 -0.035500000000000004 1.092 0.10099999999999999 2.22725 0.233 3.32525 0.2665 2.2175000000000002 0.54 4.50075 -0.5187499999999999 6.7535a8.818 8.818 0 0 1 -0.469 -0.964c-0.13174999999999998 -0.31899999999999995 -0.41725 -0.8315 -0.81275 -1.5405 -1.5390000000000001 -2.76025 -5.1434999999999995 -9.224 -3.29825 -11.8615 0.94875 -1.35675 3.352 -1.4152500000000001 5.445250000000001 -1.1575zm0.571 17.53425a30.9405 30.9405 0 0 0 -0.21325 -0.26849999999999996l-0.08875 -0.111c1.8155 -2.9987500000000002 1.4605000000000001 -5.9655000000000005 1.1444999999999999 -8.59625 -0.12975 -1.0795000000000001 -0.25225000000000003 -2.099 -0.22125 -3.0564999999999998 0.03225 -1.01525 0.1665 -1.8857499999999998 0.29625 -2.72775 0.15975 -1.0374999999999999 0.322 -2.1107500000000003 0.27725 -3.37625 0.0335 -0.13275 0.047 -0.2895 0.0295 -0.47550000000000003 -0.11424999999999999 -1.2137499999999999 -1.49975 -4.845 -4.3235 -8.1325 -1.5190000000000001 -1.76825 -3.724 -3.7430000000000003 -6.72225 -5.09875 1.31275 -0.2665 3.082 -0.5087499999999999 5.061 -0.46475 5.12875 0.114 9.186499999999999 2.03375 12.060500000000001 5.7059999999999995a2.27 2.27 0 0 1 0.16674999999999998 0.2505c1.80775 3.389 -0.6905 15.687750000000001 -7.466749999999999 26.35125zm-22.0415 -15.2905c-0.0625 0.4485 -0.77225 1.05625 -1.55275 1.05625a1.45525 1.45525 0 0 1 -0.20224999999999999 -0.014c-0.46825 -0.065 -0.94125 -0.36 -1.26475 -0.7889999999999999 -0.1145 -0.15125 -0.30075 -0.44499999999999995 -0.26375 -0.711 0.013749999999999998 -0.10024999999999999 0.06525 -0.24625000000000002 0.23125 -0.372 0.2955 -0.22349999999999998 0.8795 -0.3065 1.524 -0.21675 0.7907500000000001 0.11025 1.6064999999999998 0.4845 1.5282499999999999 1.0465zm19.82625 -1.0285c0.02775 0.198 -0.1225 0.5025000000000001 -0.38275000000000003 0.7755 -0.17075 0.17925 -0.53 0.49024999999999996 -1.01975 0.558a1.3639999999999999 1.3639999999999999 0 0 1 -0.1875 0.013c-0.7337499999999999 0 -1.3535 -0.586 -1.4017499999999998 -0.9292499999999999 -0.06 -0.44125 0.66025 -0.7765 1.4027500000000002 -0.8799999999999999 0.7424999999999999 -0.1035 1.52775 0.022000000000000002 1.5890000000000002 0.46275z" fill="#d6d6d6" stroke-width="2.5"></path>
</svg>